<svg width="16" height="17" viewBox="0 0 16 17" fill="none" xmlns="http://www.w3.org/2000/svg">
<path d="M1.63556 5.87739C1.82309 5.69577 2.0774 5.59375 2.34256 5.59375C2.60772 5.59375 2.86203 5.69577 3.04956 5.87739L7.99956 10.6727L12.9496 5.87739C13.1382 5.70092 13.3908 5.60328 13.653 5.60548C13.9152 5.60769 14.166 5.70957 14.3514 5.88919C14.5368 6.0688 14.642 6.31178 14.6442 6.56578C14.6465 6.81978 14.5457 7.06449 14.3636 7.2472L8.70656 12.7274C8.51903 12.909 8.26472 13.0111 7.99956 13.0111C7.7344 13.0111 7.48009 12.909 7.29256 12.7274L1.63556 7.2472C1.44809 7.06553 1.34277 6.81917 1.34277 6.56229C1.34277 6.30542 1.44809 6.05905 1.63556 5.87739Z" fill="#212529"/>
</svg>
