<svg width="24" height="24" viewBox="0 0 24 24" fill="none" xmlns="http://www.w3.org/2000/svg">
<path d="M9.55018 13.15L18.0252 4.675C18.2252 4.475 18.4585 4.375 18.7252 4.375C18.9918 4.375 19.2252 4.475 19.4252 4.675C19.6252 4.875 19.7252 5.11267 19.7252 5.388C19.7252 5.66333 19.6252 5.90067 19.4252 6.1L10.2502 15.3C10.0502 15.5 9.81685 15.6 9.55018 15.6C9.28351 15.6 9.05018 15.5 8.85018 15.3L4.55018 11C4.35018 10.8 4.25418 10.5627 4.26218 10.288C4.27018 10.0133 4.37451 9.77567 4.57518 9.575C4.77585 9.37433 5.01351 9.27433 5.28818 9.275C5.56285 9.27567 5.80018 9.37567 6.00018 9.575L9.55018 13.15Z" fill="#10B981"/>
</svg>
