<svg width="16" height="16" viewBox="0 0 16 16" fill="none" xmlns="http://www.w3.org/2000/svg">
<g clip-path="url(#clip0_336_86)">
<path fill-rule="evenodd" clip-rule="evenodd" d="M6.33301 1.6665C7.23701 1.6665 7.86234 2.2345 8.26301 3.03517C8.61101 3.73184 8.64367 4.5685 8.66101 5.33317H11.8837C12.1604 5.33313 12.4341 5.39051 12.6875 5.50169C12.9409 5.61286 13.1685 5.77541 13.3558 5.97906C13.5432 6.1827 13.6862 6.42301 13.7759 6.68478C13.8657 6.94655 13.9001 7.22408 13.877 7.49984L13.6363 10.3872C13.5392 11.5538 13.0071 12.6413 12.1457 13.4339C11.2842 14.2266 10.1563 14.6665 8.98567 14.6665H7.97767C6.83674 14.669 5.73494 14.2508 4.88301 13.4918C4.79228 13.4115 4.68501 13.352 4.56877 13.3177C4.45253 13.2834 4.33017 13.275 4.21034 13.2932C4.03026 13.32 3.84842 13.3334 3.66634 13.3332C2.92767 13.3332 2.31434 12.9198 1.91701 12.2612C1.53034 11.6212 1.33301 10.7378 1.33301 9.6665C1.33301 8.59584 1.53101 7.7125 1.91701 7.0725C2.31434 6.41317 2.92767 5.99984 3.66634 5.99984C3.85367 5.99984 4.05234 6.03317 4.25101 6.08917C4.55634 5.28917 4.77367 4.4645 4.67101 3.59917C4.55634 2.63584 5.34367 1.6665 6.33301 1.6665Z" fill="#5779E9" fill-opacity="0.5"/>
</g>
<defs>
<clipPath id="clip0_336_86">
<rect width="16" height="16" fill="white"/>
</clipPath>
</defs>
</svg>
