<svg width="133" height="41" viewBox="0 0 133 41" fill="none" xmlns="http://www.w3.org/2000/svg">
<path d="M64.7385 15.44H62.2585V24.76C62.2585 24.92 62.2318 25.02 62.1785 25.06C62.1385 25.1133 62.0452 25.14 61.8985 25.14H59.8785C59.7318 25.14 59.6252 25.1133 59.5585 25.06C59.5052 25.02 59.4785 24.92 59.4785 24.76V6.34C59.4785 6.19333 59.5052 6.09333 59.5585 6.04C59.6252 5.98667 59.7318 5.96 59.8785 5.96H61.8985C62.0452 5.96 62.1385 5.98667 62.1785 6.04C62.2318 6.09333 62.2585 6.19333 62.2585 6.34V13.16H64.7385C64.8585 13.16 64.9518 13.18 65.0185 13.22C65.0985 13.2467 65.1385 13.3533 65.1385 13.54V15.06C65.1385 15.22 65.0985 15.3267 65.0185 15.38C64.9518 15.42 64.8585 15.44 64.7385 15.44ZM56.1385 19.54H49.6185C49.3118 19.54 49.0585 19.5267 48.8585 19.5C48.6718 19.46 48.5252 19.3933 48.4185 19.3C48.3118 19.1933 48.2385 19.0533 48.1985 18.88C48.1585 18.6933 48.1385 18.4467 48.1385 18.14V8.76C48.1385 8.18667 48.2385 7.82 48.4385 7.66C48.6518 7.5 49.0052 7.42 49.4985 7.42H56.1385C56.4185 7.42 56.6452 7.43333 56.8185 7.46C56.9918 7.48667 57.1252 7.54667 57.2185 7.64C57.3252 7.73333 57.3985 7.87333 57.4385 8.06C57.4785 8.23333 57.4985 8.46667 57.4985 8.76V18.14C57.4985 18.4333 57.4785 18.6733 57.4385 18.86C57.3985 19.0467 57.3252 19.1933 57.2185 19.3C57.1252 19.3933 56.9918 19.46 56.8185 19.5C56.6452 19.5267 56.4185 19.54 56.1385 19.54ZM54.7385 10.08C54.7385 9.90667 54.7252 9.8 54.6985 9.76C54.6718 9.70667 54.5785 9.68 54.4185 9.68H51.2985C51.1252 9.68 51.0118 9.7 50.9585 9.74C50.9185 9.78 50.8985 9.89333 50.8985 10.08V16.88C50.8985 17.0667 50.9185 17.18 50.9585 17.22C51.0118 17.26 51.1252 17.28 51.2985 17.28H54.4185C54.5785 17.28 54.6718 17.26 54.6985 17.22C54.7252 17.1667 54.7385 17.0533 54.7385 16.88V10.08ZM79.4671 25.14H77.4671C77.3204 25.14 77.2204 25.1133 77.1671 25.06C77.1138 25.02 77.0871 24.92 77.0871 24.76V6.34C77.0871 6.19333 77.1138 6.09333 77.1671 6.04C77.2204 5.98667 77.3204 5.96 77.4671 5.96H79.4671C79.6138 5.96 79.7138 5.98667 79.7671 6.04C79.8204 6.09333 79.8471 6.19333 79.8471 6.34V24.76C79.8471 24.92 79.8204 25.02 79.7671 25.06C79.7138 25.1133 79.6138 25.14 79.4671 25.14ZM69.9271 20.44C69.1538 20.44 68.4538 20.28 67.8271 19.96C67.2004 19.64 66.6671 19.1933 66.2271 18.62C65.7871 18.0333 65.4471 17.34 65.2071 16.54C64.9671 15.74 64.8471 14.86 64.8471 13.9C64.8471 12.9133 64.9671 12.0133 65.2071 11.2C65.4471 10.3733 65.7871 9.66667 66.2271 9.08C66.6671 8.49333 67.2004 8.04 67.8271 7.72C68.4538 7.38667 69.1538 7.22 69.9271 7.22C70.7138 7.22 71.4204 7.38 72.0471 7.7C72.6871 8.02 73.2271 8.47333 73.6671 9.06C74.1071 9.63333 74.4471 10.3333 74.6871 11.16C74.9271 11.9733 75.0471 12.8733 75.0471 13.86C75.0471 14.8467 74.9271 15.7467 74.6871 16.56C74.4471 17.36 74.1071 18.0467 73.6671 18.62C73.2271 19.1933 72.6871 19.64 72.0471 19.96C71.4204 20.28 70.7138 20.44 69.9271 20.44ZM69.9271 9.64C69.5804 9.64 69.2604 9.74667 68.9671 9.96C68.6871 10.16 68.4404 10.4467 68.2271 10.82C68.0271 11.1933 67.8671 11.64 67.7471 12.16C67.6404 12.68 67.5871 13.2467 67.5871 13.86C67.5871 14.4467 67.6404 14.9933 67.7471 15.5C67.8671 16.0067 68.0271 16.4467 68.2271 16.82C68.4404 17.1933 68.6871 17.4867 68.9671 17.7C69.2604 17.9133 69.5804 18.02 69.9271 18.02C70.2871 18.02 70.6071 17.9133 70.8871 17.7C71.1804 17.4867 71.4271 17.1933 71.6271 16.82C71.8404 16.4467 72.0004 16.0067 72.1071 15.5C72.2271 14.9933 72.2871 14.4467 72.2871 13.86C72.2871 13.2467 72.2271 12.68 72.1071 12.16C72.0004 11.64 71.8404 11.1933 71.6271 10.82C71.4271 10.4467 71.1804 10.16 70.8871 9.96C70.6071 9.74667 70.2871 9.64 69.9271 9.64ZM95.6357 16.94H84.5757C83.989 16.94 83.569 16.8067 83.3157 16.54C83.0624 16.2733 82.9357 15.8733 82.9357 15.34V8.42C82.9357 7.84667 83.0557 7.46667 83.2957 7.28C83.5357 7.09333 83.9357 7 84.4957 7H95.5357C95.789 7 95.9157 7.12667 95.9157 7.38V8.9C95.9157 9.04667 95.889 9.14667 95.8357 9.2C95.7824 9.25333 95.6824 9.28 95.5357 9.28H86.0757C85.849 9.28 85.7357 9.38667 85.7357 9.6V10.82H95.2557C95.5357 10.82 95.6757 10.96 95.6757 11.24V12.64C95.6757 12.92 95.5357 13.06 95.2557 13.06H85.7357V14.36C85.7357 14.5733 85.849 14.68 86.0757 14.68H95.6357C95.9424 14.68 96.0957 14.7933 96.0957 15.02V16.54C96.0957 16.8067 95.9424 16.94 95.6357 16.94ZM98.0557 21.74H80.8757C80.7024 21.74 80.589 21.7 80.5357 21.62C80.4957 21.54 80.4757 21.44 80.4757 21.32V19.88C80.4757 19.7333 80.4957 19.6267 80.5357 19.56C80.589 19.4933 80.7024 19.46 80.8757 19.46H98.0557C98.3357 19.46 98.4757 19.6 98.4757 19.88V21.32C98.4757 21.6 98.3357 21.74 98.0557 21.74ZM114.864 21.94H97.6843C97.511 21.94 97.3976 21.9 97.3443 21.82C97.3043 21.74 97.2843 21.64 97.2843 21.52V20.12C97.2843 19.9733 97.3043 19.8667 97.3443 19.8C97.3976 19.7333 97.511 19.7 97.6843 19.7H104.884V17.18H101.264C100.678 17.18 100.284 17.0733 100.084 16.86C99.8976 16.6467 99.8043 16.2867 99.8043 15.78V12.2C99.8043 11.9467 99.8243 11.74 99.8643 11.58C99.9043 11.4067 99.971 11.2733 100.064 11.18C100.171 11.0733 100.311 11 100.484 10.96C100.671 10.9067 100.911 10.88 101.204 10.88H109.704C109.878 10.88 109.964 10.7933 109.964 10.62V9.4C109.964 9.24 109.878 9.16 109.704 9.16H100.304C100.158 9.16 100.051 9.13333 99.9843 9.08C99.931 9.02667 99.9043 8.92 99.9043 8.76V7.3C99.9043 7.04667 100.038 6.92 100.304 6.92H111.204C111.498 6.92 111.738 6.94 111.924 6.98C112.124 7.02 112.271 7.09333 112.364 7.2C112.471 7.29333 112.544 7.42667 112.584 7.6C112.624 7.77333 112.644 7.99333 112.644 8.26V11.68C112.644 11.96 112.624 12.1867 112.584 12.36C112.544 12.5333 112.471 12.6733 112.364 12.78C112.271 12.8733 112.124 12.94 111.924 12.98C111.738 13.02 111.498 13.04 111.204 13.04H102.744C102.584 13.04 102.504 13.1133 102.504 13.26V14.7C102.504 14.86 102.591 14.94 102.764 14.94H112.684C112.831 14.94 112.938 14.96 113.004 15C113.071 15.0267 113.104 15.1333 113.104 15.32V16.78C113.104 17.0467 112.971 17.18 112.704 17.18H107.664V19.7H114.864C115.144 19.7 115.284 19.84 115.284 20.12V21.52C115.284 21.8 115.144 21.94 114.864 21.94ZM126.133 19.14C125.346 19.26 124.486 19.3667 123.553 19.46C122.62 19.54 121.653 19.6067 120.653 19.66C119.653 19.7 118.633 19.7267 117.593 19.74C116.566 19.74 115.566 19.7267 114.593 19.7C114.406 19.7 114.293 19.6667 114.253 19.6C114.213 19.5333 114.193 19.4267 114.193 19.28V17.82C114.193 17.6733 114.22 17.5733 114.273 17.52C114.326 17.4667 114.433 17.44 114.593 17.44C114.9 17.4533 115.2 17.46 115.493 17.46C115.8 17.46 116.106 17.46 116.413 17.46V9.76H114.973C114.68 9.76 114.533 9.61333 114.533 9.32V7.92C114.533 7.62667 114.68 7.48 114.973 7.48H125.373C125.64 7.48 125.773 7.62667 125.773 7.92V9.34C125.773 9.62 125.64 9.76 125.373 9.76H124.033V17.18C124.34 17.1533 124.64 17.1267 124.933 17.1C125.226 17.06 125.52 17.02 125.813 16.98C126 16.9267 126.12 17 126.173 17.2L126.393 18.66C126.42 18.8467 126.413 18.9667 126.373 19.02C126.333 19.0733 126.253 19.1133 126.133 19.14ZM129.893 25.14H127.893C127.746 25.14 127.646 25.1133 127.593 25.06C127.54 25.02 127.513 24.92 127.513 24.76V6.34C127.513 6.19333 127.54 6.09333 127.593 6.04C127.646 5.98667 127.746 5.96 127.893 5.96H129.893C130.04 5.96 130.14 5.98667 130.193 6.04C130.246 6.09333 130.273 6.19333 130.273 6.34V24.76C130.273 24.92 130.246 25.02 130.193 25.06C130.14 25.1133 130.04 25.14 129.893 25.14ZM121.333 17.36V9.76H119.133V17.44C119.506 17.4267 119.873 17.42 120.233 17.42C120.606 17.4067 120.973 17.3867 121.333 17.36Z" fill="url(#paint0_linear_1512_2)"/>
<rect x="6" width="32" height="32" fill="url(#paint1_linear_1512_2)"/>
<g filter="url(#filter0_d_1512_2)">
<path d="M17.6331 8.368C17.9211 8.896 18.2491 9.552 18.6171 10.336C19.0011 11.104 19.3931 11.944 19.7931 12.856C20.2091 13.752 20.6171 14.672 21.0171 15.616C21.4171 16.56 21.7931 17.448 22.1451 18.28C22.4971 17.448 22.8731 16.56 23.2731 15.616C23.6731 14.672 24.0731 13.752 24.4731 12.856C24.8891 11.944 25.2811 11.104 25.6491 10.336C26.0331 9.552 26.3691 8.896 26.6571 8.368H30.0651C30.2251 9.472 30.3691 10.712 30.4971 12.088C30.6411 13.448 30.7611 14.872 30.8571 16.36C30.9691 17.832 31.0651 19.312 31.1451 20.8C31.2411 22.288 31.3211 23.688 31.3851 25H27.7371C27.6891 23.384 27.6251 21.624 27.5451 19.72C27.4651 17.816 27.3451 15.896 27.1851 13.96C26.8971 14.632 26.5771 15.376 26.2251 16.192C25.8731 17.008 25.5211 17.824 25.1691 18.64C24.8331 19.456 24.5051 20.24 24.1851 20.992C23.8651 21.728 23.5931 22.36 23.3691 22.888H20.7531C20.5291 22.36 20.2571 21.728 19.9371 20.992C19.6171 20.24 19.2811 19.456 18.9291 18.64C18.5931 17.824 18.2491 17.008 17.8971 16.192C17.5451 15.376 17.2251 14.632 16.9371 13.96C16.7771 15.896 16.6571 17.816 16.5771 19.72C16.4971 21.624 16.4331 23.384 16.3851 25H12.7371C12.8011 23.688 12.8731 22.288 12.9531 20.8C13.0491 19.312 13.1451 17.832 13.2411 16.36C13.3531 14.872 13.4731 13.448 13.6011 12.088C13.7451 10.712 13.8971 9.472 14.0571 8.368H17.6331Z" fill="white"/>
</g>
<defs>
<filter id="filter0_d_1512_2" x="0.737061" y="0.368164" width="42.6482" height="40.6318" filterUnits="userSpaceOnUse" color-interpolation-filters="sRGB">
<feFlood flood-opacity="0" result="BackgroundImageFix"/>
<feColorMatrix in="SourceAlpha" type="matrix" values="0 0 0 0 0 0 0 0 0 0 0 0 0 0 0 0 0 0 127 0" result="hardAlpha"/>
<feOffset dy="4"/>
<feGaussianBlur stdDeviation="6"/>
<feComposite in2="hardAlpha" operator="out"/>
<feColorMatrix type="matrix" values="0 0 0 0 0.983333 0 0 0 0 0.131111 0 0 0 0 0.390014 0 0 0 1 0"/>
<feBlend mode="normal" in2="BackgroundImageFix" result="effect1_dropShadow_1512_2"/>
<feBlend mode="normal" in="SourceGraphic" in2="effect1_dropShadow_1512_2" result="shape"/>
</filter>
<linearGradient id="paint0_linear_1512_2" x1="46" y1="16" x2="133" y2="16" gradientUnits="userSpaceOnUse">
<stop stop-color="#F84F9C"/>
<stop offset="1" stop-color="#FF7276"/>
</linearGradient>
<linearGradient id="paint1_linear_1512_2" x1="22" y1="0" x2="22" y2="32" gradientUnits="userSpaceOnUse">
<stop stop-color="#F84F9C"/>
<stop offset="1" stop-color="#FF7276"/>
</linearGradient>
</defs>
</svg>
