<svg width="16" height="16" viewBox="0 0 16 16" fill="none" xmlns="http://www.w3.org/2000/svg">
<g clip-path="url(#clip0_366_2046)">
<path fill-rule="evenodd" clip-rule="evenodd" d="M6.33301 1.66675C7.23701 1.66675 7.86234 2.23475 8.26301 3.03541C8.61101 3.73208 8.64367 4.56875 8.66101 5.33341H11.8837C12.1604 5.33337 12.4341 5.39076 12.6875 5.50193C12.9409 5.61311 13.1685 5.77566 13.3558 5.9793C13.5432 6.18295 13.6862 6.42325 13.7759 6.68502C13.8657 6.94679 13.9001 7.22433 13.877 7.50008L13.6363 10.3874C13.5392 11.554 13.0071 12.6415 12.1457 13.4342C11.2842 14.2268 10.1563 14.6668 8.98567 14.6667H7.97767C6.83674 14.6692 5.73494 14.251 4.88301 13.4921C4.79228 13.4117 4.68501 13.3523 4.56877 13.3179C4.45253 13.2836 4.33017 13.2752 4.21034 13.2934C4.03026 13.3203 3.84842 13.3336 3.66634 13.3334C2.92767 13.3334 2.31434 12.9201 1.91701 12.2614C1.53034 11.6214 1.33301 10.7381 1.33301 9.66675C1.33301 8.59608 1.53101 7.71275 1.91701 7.07275C2.31434 6.41341 2.92767 6.00008 3.66634 6.00008C3.85367 6.00008 4.05234 6.03341 4.25101 6.08941C4.55634 5.28941 4.77367 4.46475 4.67101 3.59941C4.55634 2.63608 5.34367 1.66675 6.33301 1.66675Z" fill="#5779E9" fill-opacity="0.5"/>
</g>
<defs>
<clipPath id="clip0_366_2046">
<rect width="16" height="16" fill="white"/>
</clipPath>
</defs>
</svg>
