<svg width="32" height="32" viewBox="0 0 32 32" fill="none" xmlns="http://www.w3.org/2000/svg">
<path d="M15.9989 29.9978C25.3333 29.9978 29.9978 23.7303 29.9978 15.9989C29.9978 8.26751 25.3333 2 15.9989 2C6.66443 2 2 8.26751 2 15.9989C2 23.7303 6.66443 29.9978 15.9989 29.9978Z" fill="url(#paint0_radial_909_2924)"/>
<path d="M15.9989 29.9978C25.3333 29.9978 29.9978 23.7303 29.9978 15.9989C29.9978 8.26751 25.3333 2 15.9989 2C6.66443 2 2 8.26751 2 15.9989C2 23.7303 6.66443 29.9978 15.9989 29.9978Z" fill="url(#paint1_radial_909_2924)"/>
<path d="M15.9989 29.9978C25.3333 29.9978 29.9978 23.7303 29.9978 15.9989C29.9978 8.26751 25.3333 2 15.9989 2C6.66443 2 2 8.26751 2 15.9989C2 23.7303 6.66443 29.9978 15.9989 29.9978Z" fill="url(#paint2_radial_909_2924)" fill-opacity="0.6"/>
<path d="M15.9989 29.9978C25.3333 29.9978 29.9978 23.7303 29.9978 15.9989C29.9978 8.26751 25.3333 2 15.9989 2C6.66443 2 2 8.26751 2 15.9989C2 23.7303 6.66443 29.9978 15.9989 29.9978Z" fill="url(#paint3_radial_909_2924)"/>
<path d="M15.9989 29.9978C25.3333 29.9978 29.9978 23.7303 29.9978 15.9989C29.9978 8.26751 25.3333 2 15.9989 2C6.66443 2 2 8.26751 2 15.9989C2 23.7303 6.66443 29.9978 15.9989 29.9978Z" fill="url(#paint4_radial_909_2924)"/>
<path d="M15.9989 29.9978C25.3333 29.9978 29.9978 23.7303 29.9978 15.9989C29.9978 8.26751 25.3333 2 15.9989 2C6.66443 2 2 8.26751 2 15.9989C2 23.7303 6.66443 29.9978 15.9989 29.9978Z" fill="url(#paint5_radial_909_2924)"/>
<path d="M15.9989 29.9978C25.3333 29.9978 29.9978 23.7303 29.9978 15.9989C29.9978 8.26751 25.3333 2 15.9989 2C6.66443 2 2 8.26751 2 15.9989C2 23.7303 6.66443 29.9978 15.9989 29.9978Z" fill="url(#paint6_radial_909_2924)"/>
<path d="M15.9989 29.9978C25.3333 29.9978 29.9978 23.7303 29.9978 15.9989C29.9978 8.26751 25.3333 2 15.9989 2C6.66443 2 2 8.26751 2 15.9989C2 23.7303 6.66443 29.9978 15.9989 29.9978Z" fill="url(#paint7_radial_909_2924)"/>
<path d="M15.9989 29.9978C25.3333 29.9978 29.9978 23.7303 29.9978 15.9989C29.9978 8.26751 25.3333 2 15.9989 2C6.66443 2 2 8.26751 2 15.9989C2 23.7303 6.66443 29.9978 15.9989 29.9978Z" fill="url(#paint8_radial_909_2924)"/>
<path d="M15.9989 29.9978C25.3333 29.9978 29.9978 23.7303 29.9978 15.9989C29.9978 8.26751 25.3333 2 15.9989 2C6.66443 2 2 8.26751 2 15.9989C2 23.7303 6.66443 29.9978 15.9989 29.9978Z" fill="url(#paint9_radial_909_2924)"/>
<path d="M15.9989 29.9978C25.3333 29.9978 29.9978 23.7303 29.9978 15.9989C29.9978 8.26751 25.3333 2 15.9989 2C6.66443 2 2 8.26751 2 15.9989C2 23.7303 6.66443 29.9978 15.9989 29.9978Z" fill="url(#paint10_radial_909_2924)"/>
<path d="M15.9989 29.9978C25.3333 29.9978 29.9978 23.7303 29.9978 15.9989C29.9978 8.26751 25.3333 2 15.9989 2C6.66443 2 2 8.26751 2 15.9989C2 23.7303 6.66443 29.9978 15.9989 29.9978Z" fill="url(#paint11_radial_909_2924)"/>
<path d="M15.9989 29.9978C25.3333 29.9978 29.9978 23.7303 29.9978 15.9989C29.9978 8.26751 25.3333 2 15.9989 2C6.66443 2 2 8.26751 2 15.9989C2 23.7303 6.66443 29.9978 15.9989 29.9978Z" fill="url(#paint12_radial_909_2924)"/>
<path d="M15.9989 29.9978C25.3333 29.9978 29.9978 23.7303 29.9978 15.9989C29.9978 8.26751 25.3333 2 15.9989 2C6.66443 2 2 8.26751 2 15.9989C2 23.7303 6.66443 29.9978 15.9989 29.9978Z" fill="url(#paint13_radial_909_2924)"/>
<circle cx="9" cy="16" r="5" fill="url(#paint14_radial_909_2924)"/>
<circle cx="19.5" cy="16.5" r="4.5" fill="url(#paint15_radial_909_2924)"/>
<path d="M10.5 19C12.9853 19 15 16.9853 15 14.5C15 12.0147 12.9853 10 10.5 10C8.01472 10 6 12.0147 6 14.5C6 16.9853 8.01472 19 10.5 19Z" fill="white"/>
<path d="M21.5 19C23.9853 19 26 16.9853 26 14.5C26 12.0147 23.9853 10 21.5 10C19.0147 10 17 12.0147 17 14.5C17 16.9853 19.0147 19 21.5 19Z" fill="white"/>
<path d="M12 17C13.1046 17 14 16.1046 14 15C14 13.8954 13.1046 13 12 13C10.8954 13 10 13.8954 10 15C10 16.1046 10.8954 17 12 17Z" fill="url(#paint16_linear_909_2924)"/>
<path d="M20 17C21.1046 17 22 16.1046 22 15C22 13.8954 21.1046 13 20 13C18.8954 13 18 13.8954 18 15C18 16.1046 18.8954 17 20 17Z" fill="url(#paint17_linear_909_2924)"/>
<path fill-rule="evenodd" clip-rule="evenodd" d="M9.88364 5.3966L9.88406 5.39411L9.88135 5.40785C9.8785 5.42172 9.87336 5.44534 9.86537 5.47732C9.84934 5.54143 9.8221 5.63813 9.77937 5.75647C9.69335 5.99466 9.54798 6.31106 9.31252 6.625C8.85826 7.23069 8.03752 7.875 6.50002 7.875C6.15485 7.875 5.87502 8.15482 5.87502 8.5C5.87502 8.84518 6.15485 9.125 6.50002 9.125C8.46253 9.125 9.64179 8.26931 10.3125 7.375C10.6396 6.93894 10.8379 6.50534 10.9551 6.18103C11.0139 6.01812 11.0531 5.88044 11.078 5.78049C11.0906 5.73044 11.0996 5.68961 11.1058 5.65953C11.1094 5.64176 11.1129 5.62393 11.116 5.60605L11.1163 5.60426C11.1166 5.60198 11.1165 5.60275 11.1165 5.60275C11.1733 5.26227 10.9433 4.94025 10.6028 4.8835C10.2633 4.82693 9.94227 5.05537 9.88406 5.39411" fill="url(#paint18_linear_909_2924)"/>
<path fill-rule="evenodd" clip-rule="evenodd" d="M9.88364 5.3966L9.88406 5.39411L9.88135 5.40785C9.8785 5.42172 9.87336 5.44534 9.86537 5.47732C9.84934 5.54143 9.8221 5.63813 9.77937 5.75647C9.69335 5.99466 9.54798 6.31106 9.31252 6.625C8.85826 7.23069 8.03752 7.875 6.50002 7.875C6.15485 7.875 5.87502 8.15482 5.87502 8.5C5.87502 8.84518 6.15485 9.125 6.50002 9.125C8.46253 9.125 9.64179 8.26931 10.3125 7.375C10.6396 6.93894 10.8379 6.50534 10.9551 6.18103C11.0139 6.01812 11.0531 5.88044 11.078 5.78049C11.0906 5.73044 11.0996 5.68961 11.1058 5.65953C11.1094 5.64176 11.1129 5.62393 11.116 5.60605L11.1163 5.60426C11.1166 5.60198 11.1165 5.60275 11.1165 5.60275C11.1733 5.26227 10.9433 4.94025 10.6028 4.8835C10.2633 4.82693 9.94227 5.05537 9.88406 5.39411" fill="url(#paint19_radial_909_2924)"/>
<path fill-rule="evenodd" clip-rule="evenodd" d="M22.1164 5.3966L22.1159 5.39411L22.1186 5.40785C22.1215 5.42172 22.1266 5.44534 22.1346 5.47732C22.1507 5.54143 22.1779 5.63813 22.2206 5.75647C22.3066 5.99466 22.452 6.31106 22.6875 6.625C23.1417 7.23069 23.9625 7.875 25.5 7.875C25.8452 7.875 26.125 8.15482 26.125 8.5C26.125 8.84518 25.8452 9.125 25.5 9.125C23.5375 9.125 22.3582 8.26931 21.6875 7.375C21.3604 6.93894 21.1621 6.50534 21.0449 6.18103C20.9861 6.01812 20.9469 5.88044 20.922 5.78049C20.9094 5.73044 20.9004 5.68961 20.8942 5.65953C20.8905 5.64116 20.8869 5.62275 20.8837 5.60426C20.8834 5.60198 20.8835 5.60275 20.8835 5.60275C20.8267 5.26227 21.0567 4.94025 21.3972 4.8835C21.7367 4.82693 22.0577 5.05537 22.1159 5.39411" fill="url(#paint20_radial_909_2924)"/>
<path fill-rule="evenodd" clip-rule="evenodd" d="M16 24C13.9954 24 13.0659 25.1042 12.8944 25.4472C12.6474 25.9412 12.0467 26.1414 11.5528 25.8944C11.0588 25.6474 10.8586 25.0468 11.1055 24.5528C11.6007 23.5625 13.2046 22 16 22C18.7954 22 20.3992 23.5625 20.8944 24.5528C21.1414 25.0468 20.9412 25.6474 20.4472 25.8944C19.9532 26.1414 19.3525 25.9412 19.1055 25.4472C18.934 25.1042 18.0046 24 16 24Z" fill="url(#paint21_radial_909_2924)"/>
<path fill-rule="evenodd" clip-rule="evenodd" d="M16 24C13.9954 24 13.0659 25.1042 12.8944 25.4472C12.6474 25.9412 12.0467 26.1414 11.5528 25.8944C11.0588 25.6474 10.8586 25.0468 11.1055 24.5528C11.6007 23.5625 13.2046 22 16 22C18.7954 22 20.3992 23.5625 20.8944 24.5528C21.1414 25.0468 20.9412 25.6474 20.4472 25.8944C19.9532 26.1414 19.3525 25.9412 19.1055 25.4472C18.934 25.1042 18.0046 24 16 24Z" fill="url(#paint22_radial_909_2924)"/>
<path fill-rule="evenodd" clip-rule="evenodd" d="M16 24C13.9954 24 13.0659 25.1042 12.8944 25.4472C12.6474 25.9412 12.0467 26.1414 11.5528 25.8944C11.0588 25.6474 10.8586 25.0468 11.1055 24.5528C11.6007 23.5625 13.2046 22 16 22C18.7954 22 20.3992 23.5625 20.8944 24.5528C21.1414 25.0468 20.9412 25.6474 20.4472 25.8944C19.9532 26.1414 19.3525 25.9412 19.1055 25.4472C18.934 25.1042 18.0046 24 16 24Z" fill="url(#paint23_radial_909_2924)"/>
<path fill-rule="evenodd" clip-rule="evenodd" d="M16 24C13.9954 24 13.0659 25.1042 12.8944 25.4472C12.6474 25.9412 12.0467 26.1414 11.5528 25.8944C11.0588 25.6474 10.8586 25.0468 11.1055 24.5528C11.6007 23.5625 13.2046 22 16 22C18.7954 22 20.3992 23.5625 20.8944 24.5528C21.1414 25.0468 20.9412 25.6474 20.4472 25.8944C19.9532 26.1414 19.3525 25.9412 19.1055 25.4472C18.934 25.1042 18.0046 24 16 24Z" fill="url(#paint24_radial_909_2924)"/>
<defs>
<radialGradient id="paint0_radial_909_2924" cx="0" cy="0" r="1" gradientUnits="userSpaceOnUse" gradientTransform="translate(25.5 9) rotate(132.839) scale(37.5033)">
<stop stop-color="#FFF478"/>
<stop offset="0.474827" stop-color="#FFB02E"/>
<stop offset="1" stop-color="#F70A8D"/>
</radialGradient>
<radialGradient id="paint1_radial_909_2924" cx="0" cy="0" r="1" gradientUnits="userSpaceOnUse" gradientTransform="translate(16 12.5) rotate(101.31) scale(17.8466 22.8581)">
<stop offset="0.787821" stop-color="#F59639" stop-opacity="0"/>
<stop offset="0.972509" stop-color="#FF7DCE"/>
</radialGradient>
<radialGradient id="paint2_radial_909_2924" cx="0" cy="0" r="1" gradientUnits="userSpaceOnUse" gradientTransform="translate(18 14) rotate(135) scale(41.0122)">
<stop offset="0.314853" stop-opacity="0"/>
<stop offset="1"/>
</radialGradient>
<radialGradient id="paint3_radial_909_2924" cx="0" cy="0" r="1" gradientUnits="userSpaceOnUse" gradientTransform="translate(16 17) rotate(77.692) scale(28.1469)">
<stop offset="0.507903" stop-color="#7D6133" stop-opacity="0"/>
<stop offset="1" stop-color="#715B32"/>
</radialGradient>
<radialGradient id="paint4_radial_909_2924" cx="0" cy="0" r="1" gradientUnits="userSpaceOnUse" gradientTransform="translate(16.5 16.5) rotate(55.7131) scale(13.3135 9.65032)">
<stop stop-color="#FFB849"/>
<stop offset="1" stop-color="#FFB847" stop-opacity="0"/>
</radialGradient>
<radialGradient id="paint5_radial_909_2924" cx="0" cy="0" r="1" gradientUnits="userSpaceOnUse" gradientTransform="translate(20.5 18) rotate(9.86581) scale(11.6726)">
<stop stop-color="#FFA64B"/>
<stop offset="0.900412" stop-color="#FFAE46" stop-opacity="0"/>
</radialGradient>
<radialGradient id="paint6_radial_909_2924" cx="0" cy="0" r="1" gradientUnits="userSpaceOnUse" gradientTransform="translate(17.5 15) rotate(43.9708) scale(59.0529)">
<stop offset="0.185425" stop-opacity="0"/>
<stop offset="1" stop-opacity="0.4"/>
</radialGradient>
<radialGradient id="paint7_radial_909_2924" cx="0" cy="0" r="1" gradientUnits="userSpaceOnUse" gradientTransform="translate(22.6724 8.20707) rotate(132.337) scale(1.51527 3.38546)">
<stop offset="0.09375" stop-color="#D4901B"/>
<stop offset="1" stop-color="#DEA22D" stop-opacity="0"/>
</radialGradient>
<radialGradient id="paint8_radial_909_2924" cx="0" cy="0" r="1" gradientUnits="userSpaceOnUse" gradientTransform="translate(24.52 8.85038) rotate(95.0006) scale(1.44305 1.6968)">
<stop offset="0.09375" stop-color="#D4901B"/>
<stop offset="1" stop-color="#DEA22D" stop-opacity="0"/>
</radialGradient>
<radialGradient id="paint9_radial_909_2924" cx="0" cy="0" r="1" gradientUnits="userSpaceOnUse" gradientTransform="translate(21.263 14.9752) rotate(122.034) scale(4.66385)">
<stop offset="0.359039" stop-color="#C84E28"/>
<stop offset="1" stop-color="#C84528" stop-opacity="0"/>
</radialGradient>
<radialGradient id="paint10_radial_909_2924" cx="0" cy="0" r="1" gradientUnits="userSpaceOnUse" gradientTransform="translate(9.45141 14.3192) rotate(161.186) scale(5.2085)">
<stop offset="0.192606" stop-color="#392108"/>
<stop offset="1" stop-color="#C87928" stop-opacity="0"/>
</radialGradient>
<radialGradient id="paint11_radial_909_2924" cx="0" cy="0" r="1" gradientUnits="userSpaceOnUse" gradientTransform="translate(20.2814 13.6394) rotate(125.47) scale(4.03952)">
<stop stop-color="#392108"/>
<stop offset="1" stop-color="#C87928" stop-opacity="0"/>
</radialGradient>
<radialGradient id="paint12_radial_909_2924" cx="0" cy="0" r="1" gradientUnits="userSpaceOnUse" gradientTransform="translate(10.2016 15.4536) rotate(60.3615) scale(4.33753)">
<stop offset="0.359039" stop-color="#C84E28"/>
<stop offset="1" stop-color="#C84528" stop-opacity="0"/>
</radialGradient>
<radialGradient id="paint13_radial_909_2924" cx="0" cy="0" r="1" gradientUnits="userSpaceOnUse" gradientTransform="translate(8.22454 9.98363) rotate(-8.56089) scale(4.4529)">
<stop stop-color="#D59A13"/>
<stop offset="1" stop-color="#D59A13" stop-opacity="0"/>
</radialGradient>
<radialGradient id="paint14_radial_909_2924" cx="0" cy="0" r="1" gradientUnits="userSpaceOnUse" gradientTransform="translate(12.8889 12.1111) rotate(135) scale(9.74236 5.04232)">
<stop stop-color="#392108"/>
<stop offset="1" stop-color="#C87928" stop-opacity="0"/>
</radialGradient>
<radialGradient id="paint15_radial_909_2924" cx="0" cy="0" r="1" gradientUnits="userSpaceOnUse" gradientTransform="translate(23 13) rotate(135) scale(8.13173 4.59049)">
<stop stop-color="#392108"/>
<stop offset="1" stop-color="#C87928" stop-opacity="0"/>
</radialGradient>
<linearGradient id="paint16_linear_909_2924" x1="20.6154" y1="13" x2="19.9265" y2="17.0302" gradientUnits="userSpaceOnUse">
<stop stop-color="#553B3E"/>
<stop offset="1" stop-color="#3D2432"/>
</linearGradient>
<linearGradient id="paint17_linear_909_2924" x1="20.6154" y1="13" x2="19.9265" y2="17.0302" gradientUnits="userSpaceOnUse">
<stop stop-color="#553B3E"/>
<stop offset="1" stop-color="#3D2432"/>
</linearGradient>
<linearGradient id="paint18_linear_909_2924" x1="9.50002" y1="5" x2="9.50002" y2="6.5" gradientUnits="userSpaceOnUse">
<stop offset="0.0299084" stop-color="#524049"/>
<stop offset="1" stop-color="#4A2C42"/>
</linearGradient>
<radialGradient id="paint19_radial_909_2924" cx="0" cy="0" r="1" gradientUnits="userSpaceOnUse" gradientTransform="translate(7.00003 5) rotate(54.4623) scale(4.30116)">
<stop offset="0.541667" stop-color="#493032"/>
<stop offset="0.806723" stop-color="#5E445A"/>
<stop offset="0.955326" stop-color="#4A2C42"/>
</radialGradient>
<radialGradient id="paint20_radial_909_2924" cx="0" cy="0" r="1" gradientUnits="userSpaceOnUse" gradientTransform="translate(25 5) rotate(125.538) scale(4.30116)">
<stop stop-color="#C2B4B5"/>
<stop offset="0.887405" stop-color="#462B45"/>
<stop offset="1" stop-color="#4A2C42"/>
</radialGradient>
<radialGradient id="paint21_radial_909_2924" cx="0" cy="0" r="1" gradientUnits="userSpaceOnUse" gradientTransform="translate(16 26.9236) rotate(-90) scale(5.43952 6.78745)">
<stop offset="0.479167" stop-color="#5B2666"/>
<stop offset="0.686742" stop-color="#533A4E"/>
<stop offset="0.817708" stop-color="#533A4E"/>
<stop offset="0.959686" stop-color="#53261F"/>
</radialGradient>
<radialGradient id="paint22_radial_909_2924" cx="0" cy="0" r="1" gradientUnits="userSpaceOnUse" gradientTransform="translate(12.0317 25.7662) rotate(23.4704) scale(1.24475)">
<stop stop-color="#52265D"/>
<stop offset="1" stop-color="#52265D" stop-opacity="0"/>
</radialGradient>
<radialGradient id="paint23_radial_909_2924" cx="0" cy="0" r="1" gradientUnits="userSpaceOnUse" gradientTransform="translate(10.9998 24.7142) rotate(33.0054) scale(0.788842 1.99699)">
<stop stop-color="#4E3130"/>
<stop offset="1" stop-color="#4E3130" stop-opacity="0"/>
</radialGradient>
<radialGradient id="paint24_radial_909_2924" cx="0" cy="0" r="1" gradientUnits="userSpaceOnUse" gradientTransform="translate(20.5886 24.6031) rotate(134.098) scale(1.33078)">
<stop stop-color="#694F5B"/>
<stop offset="1" stop-color="#59414E" stop-opacity="0"/>
</radialGradient>
</defs>
</svg>
